<?xml version="1.0" standalone="no"?>
<!DOCTYPE svg PUBLIC "-//W3C//DTD SVG 20010904//EN"
 "http://www.w3.org/TR/2001/REC-SVG-20010904/DTD/svg10.dtd">
<svg version="1.0" xmlns="http://www.w3.org/2000/svg"
 width="50.000000pt" height="50.000000pt" viewBox="0 0 50.000000 50.000000"
 preserveAspectRatio="xMidYMid meet">

<g transform="translate(0.000000,50.000000) scale(0.100000,-0.100000)"
fill="#000000" stroke="none">
<path d="M218 449 c-10 -5 -18 -17 -18 -24 0 -10 -10 -15 -30 -15 -16 0 -30 5
-30 10 0 6 -20 10 -45 10 -26 0 -45 -5 -45 -11 0 -6 -11 -20 -25 -31 -24 -19
-25 -23 -25 -152 0 -186 -14 -176 251 -176 263 0 249 -10 249 176 0 123 -1
132 -23 152 -13 12 -35 22 -50 22 -17 0 -27 5 -27 15 0 8 -9 19 -19 25 -25 13
-141 13 -163 -1z m164 -34 c8 -18 19 -25 39 -25 52 0 59 -19 59 -155 0 -99 -3
-127 -16 -139 -23 -24 -405 -24 -428 0 -23 22 -23 257 -1 276 9 7 22 19 30 26
16 14 55 16 55 2 0 -5 20 -10 43 -10 37 0 46 4 55 25 11 23 17 25 82 25 65 0
71 -2 82 -25z"/>
<path d="M240 353 c-95 -49 -87 -193 13 -232 105 -40 206 61 166 166 -27 70
-111 101 -179 66z m110 -18 c32 -17 60 -61 60 -95 0 -34 -28 -78 -60 -95 -37
-19 -63 -19 -100 0 -32 17 -60 61 -60 95 0 33 28 78 58 94 35 20 66 20 102 1z"/>
<path d="M54 349 c-10 -17 13 -36 27 -22 12 12 4 33 -11 33 -5 0 -12 -5 -16
-11z"/>
</g>
</svg>
