<?xml version="1.0" standalone="no"?>
<!DOCTYPE svg PUBLIC "-//W3C//DTD SVG 20010904//EN"
 "http://www.w3.org/TR/2001/REC-SVG-20010904/DTD/svg10.dtd">
<svg version="1.0" xmlns="http://www.w3.org/2000/svg"
 width="32.000000pt" height="32.000000pt" viewBox="0 0 32.000000 32.000000"
 preserveAspectRatio="xMidYMid meet">

<g transform="translate(0.000000,32.000000) scale(0.100000,-0.100000)"
fill="#000000" stroke="none">
<path d="M22 268 c-7 -7 -12 -33 -12 -59 0 -36 6 -52 26 -74 19 -20 28 -25 37
-16 22 22 46 13 49 -21 3 -32 5 -33 53 -36 27 -2 58 -10 67 -19 16 -14 19 -13
42 13 19 22 25 40 26 75 0 56 -12 69 -67 69 -40 0 -43 2 -43 28 0 15 -5 33
-12 40 -16 16 -150 16 -166 0z m158 -13 c18 -22 8 -50 -21 -53 -20 -2 -28 3
-38 25 l-13 28 -19 -35 c-19 -37 -27 -80 -8 -47 14 23 39 22 39 -3 0 -13 -7
-20 -18 -20 -10 0 -23 -5 -30 -12 -9 -9 -12 -9 -12 0 0 7 -7 12 -15 12 -11 0
-15 13 -15 53 0 30 3 57 7 60 13 14 130 7 143 -8z m-65 -45 c3 -5 1 -10 -4
-10 -6 0 -11 5 -11 10 0 6 2 10 4 10 3 0 8 -4 11 -10z m175 -80 c0 -47 -3 -60
-15 -60 -8 0 -15 -5 -15 -11 0 -8 -4 -8 -13 -1 -7 6 -35 12 -62 14 l-50 3 -3
44 c-5 68 -2 71 83 71 l75 0 0 -60z"/>
<path d="M190 153 l-25 -13 32 0 c25 0 31 -4 27 -15 -5 -13 -9 -13 -22 -3 -13
11 -15 10 -9 -4 3 -9 1 -19 -6 -22 -7 -2 6 -5 28 -5 26 0 35 2 26 8 -10 7 -11
13 -2 30 10 17 9 21 -3 21 -8 0 -16 4 -18 8 -1 4 -14 2 -28 -5z"/>
</g>
</svg>
